<svg xmlns="http://www.w3.org/2000/svg" viewBox="0 0 128 128">
  <!-- Placeholder art, seen from behind. Feet rest at y = 120. -->
  <g stroke="#2A1F3D" stroke-width="4" stroke-linejoin="round" stroke-linecap="round">
    <rect x="44" y="104" width="17" height="15" rx="6" fill="#FFFFFF"/>
    <rect x="67" y="104" width="17" height="15" rx="6" fill="#FFFFFF"/>
    <rect x="42" y="78" width="44" height="30" rx="12" fill="#E53935"/>
    <rect x="43" y="96" width="42" height="7" fill="#3A3550" stroke="none"/>
    <circle cx="38" cy="90" r="8" fill="#FFFFFF"/>
    <circle cx="90" cy="90" r="8" fill="#FFFFFF"/>
    <circle cx="64" cy="50" r="34" fill="#B71C1C"/>
    <circle cx="62" cy="47" r="31" fill="#E53935" stroke="none"/>
    <circle cx="64" cy="50" r="34" fill="none"/>
    <ellipse cx="50" cy="28" rx="10" ry="5" transform="rotate(-30 50 28)" fill="#FF8A80" stroke="none"/>
    <path d="M64 18 V80" fill="none" stroke="#B71C1C" stroke-width="6"/>
    <circle cx="30" cy="54" r="9" fill="#FFC93C"/>
    <circle cx="98" cy="54" r="9" fill="#FFC93C"/>
    <rect x="57" y="12" width="14" height="8" rx="3" fill="#8C8FA3"/>
    <path d="M64 12 Q65 5 73 4" fill="none" stroke="#E8D3A8" stroke-width="3"/>
  </g>
</svg>
